#!OML:ASF E:\Steps\Project 1\Capture day 1\Session 2\Subject.ASF
:FULLY-SPECIFIED
:DEGREES
259
root 9.1813 16.2894 19.3292 -148.207 -0.753899 179.579
lowerback -25.6647 -1.74085 -5.60888
upperback -2.29854 -1.31232 -0.112143
thorax 11.8661 -1.15785 2.58369
lowerneck -5.43451 3.58827 -5.4101
upperneck 1.77337 6.0268 19.7079
head 0.668801 3.85892 7.00508
rclavicle 2.68359e-015 2.18663e-014
rhumerus -35.0435 -18.4503 -80.1622
rradius 29.9869
rwrist 0.405003
rhand -9.18687 -49.7844
rfingers 7.12502
rthumb 16.7666 -79.0805
lclavicle 2.68359e-015 2.18663e-014
lhumerus -26.8702 3.64641 83.6472
lradius 24.4353
lwrist -6.90075
lhand -22.1189 -14.3325
lfingers 7.12502
lthumb 4.29399 15.6039
rfemur -28.9602 8.79268 18.8641
rtibia 11.3085
rfoot -22.2473 -7.91383
rtoes -28.35
lfemur -31.315 -10.4086 -17.8934
ltibia 15.4064
lfoot -12.3498 1.11884
ltoes -16.6291
260
root 9.18058 16.2837 19.3436 -148.018 -0.855693 179.698
lowerback -25.2911 -1.67641 -5.47369
upperback -2.51371 -1.32153 -0.0748245
thorax 11.4162 -1.15117 2.55342
lowerneck -5.48175 3.57887 -5.34333
upperneck 1.93517 5.99192 19.7398
head 0.728996 3.85574 7.00909
rclavicle 5.1684e-015 1.03368e-014
rhumerus -35.3145 -18.2974 -80.1135
rradius 30.1472
rwrist 0.23649
rhand -9.14211 -49.4633
rfingers 7.12502
rthumb 16.8096 -78.7557
lclavicle 5.1684e-015 1.03368e-014
lhumerus -27.1113 3.24127 83.7383
lradius 24.6538
lwrist -6.6437
lhand -22.232 -14.368
lfingers 7.12502
lthumb 4.18471 15.5706
rfemur -29.4525 8.56354 19.0991
rtibia 11.8512
rfoot -22.5657 -7.89061
rtoes -28.9081
lfemur -31.9081 -10.6471 -17.5665
ltibia 15.9999
lfoot -12.7235 1.1401
ltoes -15.1838
261
root 9.17917 16.2769 19.3612 -147.797 -0.883621 179.804
lowerback -25.736 -1.64997 -5.4054
upperback -2.20366 -1.23584 -0.0305432
thorax 12.0065 -1.11204 2.58559
lowerneck -5.82583 3.66202 -4.95215
upperneck 2.18908 6.04481 19.4517
head 0.874233 3.90754 6.86789
rclavicle 7.35503e-015 -2.06736e-014
rhumerus -34.5676 -18.4623 -80.2418
rradius 30.0471
rwrist 0.224829
rhand -9.16063 -49.6117
rfingers 7.12502
rthumb 16.7918 -78.9056
lclavicle 7.35503e-015 -2.06736e-014
lhumerus -26.458 2.97359 83.9288
lradius 24.7895
lwrist -6.51643
lhand -22.2037 -14.1267
lfingers 7.12502
lthumb 4.21209 15.8114
rfemur -30.0074 8.42599 19.2605
rtibia 12.3809
rfoot -22.7836 -7.88131
rtoes -29.3837
lfemur -32.6242 -10.7656 -17.3274
ltibia 16.7711
lfoot -13.1295 1.19125
ltoes -15.0319
262
root 9.17875 16.2723 19.3776 -147.621 -0.977505 179.862
lowerback -25.4983 -1.65018 -5.34855
upperback -2.31519 -1.28473 0.0182604
thorax 11.754 -1.12917 2.59566
lowerneck -5.76438 3.74091 -4.81292
upperneck 2.39038 6.11113 19.3622
head 0.919624 3.94476 6.81773
rclavicle -1.0138e-014 -1.43125e-014
rhumerus -34.5714 -18.3041 -80.2257
rradius 30.076
rwrist 0.186248
rhand -9.1704 -50.1346
rfingers 7.12502
rthumb 16.7824 -79.4293
lclavicle -1.0138e-014 -1.43125e-014
lhumerus -26.521 2.97191 83.9666
lradius 24.9367
lwrist -6.52689
lhand -21.9999 -13.9432
lfingers 7.12502
lthumb 4.40885 15.9909
rfemur -30.4628 8.47082 19.3047
rtibia 12.7756
rfoot -22.9093 -8.02066
rtoes -29.1072
lfemur -33.3454 -10.8399 -17.157
ltibia 17.6519
lfoot -13.5157 1.10851
ltoes -14.8442
263
root 9.17844 16.2703 19.39 -147.558 -1.15423 179.917
lowerback -25.3011 -1.66378 -5.27352
upperback -2.29047 -1.32605 0.0447016
thorax 11.68 -1.13904 2.57161
lowerneck -5.81049 3.81923 -4.56823
upperneck 2.5995 6.17333 19.2175
head 0.991593 3.98716 6.73655
rclavicle 7.95139e-015 -6.36111e-015
rhumerus -34.4672 -18.0348 -80.354
rradius 30.164
rwrist -0.0416556
rhand -9.15326 -50.0865
rfingers 7.12502
rthumb 16.7989 -79.3798
lclavicle 7.95139e-015 -6.36111e-015
lhumerus -26.4024 2.94101 83.9525
lradius 24.9847
lwrist -6.56363
lhand -21.9028 -14.1441
lfingers 7.12502
lthumb 4.50262 15.788
rfemur -30.7689 8.40469 19.4444
rtibia 13.2141
rfoot -23.0503 -8.30686
rtoes -29.8166
lfemur -33.9609 -10.9184 -17.0207
ltibia 18.6398
lfoot -13.8769 1.10847
ltoes -16.0777
264
root 9.18026 16.2555 19.4187 -146.811 -0.778844 180.219
lowerback -25.6885 -1.41001 -5.10309
upperback -2.46001 -1.05905 0.0030154
thorax 11.6638 -1.01994 2.51416
lowerneck -5.92207 3.85707 -4.27782
upperneck 2.79494 6.18533 19.087
head 1.0786 4.01139 6.65478
rclavicle 1.49089e-015 9.54166e-015
rhumerus -34.349 -18.047 -80.4418
rradius 30.1309
rwrist -0.16316
rhand -9.04173 -49.5849
rfingers 7.12502
rthumb 16.9063 -78.8691
lclavicle 1.49089e-015 9.54166e-015
lhumerus -26.3557 2.49715 83.9828
lradius 25.1851
lwrist -6.34409
lhand -21.6251 -14.391
lfingers 7.12502
lthumb 4.77077 15.5353
rfemur -32.3472 8.44287 19.6573
rtibia 14.3847
rfoot -23.3975 -8.07531
rtoes -30.6648
lfemur -35.4338 -10.6475 -16.6327
ltibia 19.7501
lfoot -14.207 1.60288
ltoes -19.031
265
root 9.17695 16.2518 19.4293 -146.883 -1.10763 179.993
lowerback -25.163 -1.53617 -5.18611
upperback -2.48162 -1.21847 0.0092052
thorax 11.3732 -1.08504 2.52178
lowerneck -5.98808 3.9075 -4.22583
upperneck 2.97218 6.22294 19.0391
head 1.13934 4.03991 6.63765
rclavicle 7.7526e-015 4.77083e-015
rhumerus -34.3123 -18.2383 -80.244
rradius 29.9298
rwrist 0.138983
rhand -8.82923 -48.9997
rfingers 7.12502
rthumb 17.1108 -78.2662
lclavicle 7.7526e-015 4.77083e-015
lhumerus -26.4955 2.33715 84.0955
lradius 25.4594
lwrist -6.17515
lhand -21.3736 -14.5321
lfingers 7.12502
lthumb 5.01366 15.3886
rfemur -32.5937 8.29734 19.4792
rtibia 15.0547
rfoot -23.8689 -8.49152
rtoes -30.2288
lfemur -35.9315 -11.6138 -16.4689
ltibia 20.5904
lfoot -14.5415 1.89844
ltoes -17.8709
266
root 9.17498 16.2429 19.443 -146.813 -1.29418 179.998
lowerback -24.9104 -1.54546 -5.06489
upperback -2.46262 -1.26689 0.0227104
thorax 11.2625 -1.09461 2.4552
lowerneck -4.93866 4.30181 -2.59165
upperneck 2.10309 6.702 17.1242
head 0.767179 4.11799 5.70459
rclavicle 4.27387e-015 3.1408e-014
rhumerus -34.2418 -18.2374 -80.2218
rradius 29.9365
rwrist 0.242016
rhand -8.68976 -48.6844
rfingers 7.12502
rthumb 17.2451 -77.9393
lclavicle 4.27387e-015 3.1408e-014
lhumerus -26.4288 2.28909 84.1244
lradius 25.5357
lwrist -6.19366
lhand -22.454 -14.8318
lfingers 7.12502
lthumb 3.97041 15.111
rfemur -33.1437 8.21048 19.5287
rtibia 15.9567
rfoot -24.3945 -8.62319
rtoes -29.8325
lfemur -36.8556 -11.6793 -16.3459
ltibia 22.04
lfoot -15.0633 1.44465
ltoes -14.9215
267
root 9.17591 16.2321 19.4725 -146.477 -1.60404 179.955
lowerback -24.7405 -1.5453 -5.05867
upperback -2.56788 -1.28812 -0.00155515
thorax 11.0516 -1.10163 2.4206
lowerneck -4.87794 5.69049 -2.51712
upperneck 1.78313 6.38852 16.9396
head 0.691917 3.05415 5.61152
rclavicle -6.95746e-016 2.38542e-015
rhumerus -34.3151 -18.1301 -80.2953
rradius 30.1091
rwrist 0.0742625
rhand -8.5156 -48.5667
rfingers 7.12502
rthumb 17.4127 -77.8068
lclavicle -6.95746e-016 2.38542e-015
lhumerus -26.3853 2.02623 84.133
lradius 25.5725
lwrist -6.32351
lhand -22.2289 -14.6048
lfingers 7.12502
lthumb 4.18776 15.3337
rfemur -34.1121 7.81213 19.5888
rtibia 16.9794
rfoot -24.783 -8.63077
rtoes -29.8083
lfemur -38.2742 -11.8547 -16.1472
ltibia 23.749
lfoot -15.5854 1.21255
ltoes -14.3689
